<?xml version="1.0" standalone="no"?>
<!DOCTYPE svg PUBLIC "-//W3C//DTD SVG 20010904//EN"
 "http://www.w3.org/TR/2001/REC-SVG-20010904/DTD/svg10.dtd">
<svg version="1.0" xmlns="http://www.w3.org/2000/svg"
 width="260.000000pt" height="260.000000pt" viewBox="0 0 260.000000 260.000000"
 preserveAspectRatio="xMidYMid meet">
<metadata>
Created by potrace 1.11, written by Peter Selinger 2001-2013
</metadata>
<g transform="translate(0.000000,260.000000) scale(0.100000,-0.100000)"
fill="#000000" stroke="none">
<path d="M765 2565 c-160 -37 -269 -137 -303 -276 -20 -82 3 -130 80 -170 73
-38 165 -52 329 -53 150 0 155 -1 153 -21 -1 -11 -3 -40 -3 -65 l-1 -46 -60 1
c-85 1 -144 -21 -199 -74 -78 -77 -76 -58 -76 -727 l1 -589 22 -47 c48 -98
124 -145 237 -147 l40 -1 -3 -111 c-3 -123 9 -164 56 -195 32 -21 109 -24 143
-6 55 30 64 57 64 190 l0 122 326 0 c297 0 329 2 348 18 42 35 28 132 -19 132
-39 0 -62 97 -40 165 7 22 18 35 29 35 10 0 26 10 37 23 19 21 20 38 18 582
-1 308 -2 569 -3 580 -2 46 -24 49 -383 50 -185 0 -339 3 -343 7 -4 3 -8 47
-9 96 -2 90 -2 90 30 122 31 30 33 36 29 89 -13 212 -264 370 -500 316z"/>
</g>
</svg>
