<?xml version="1.0" encoding="utf-8"?>
<!-- Generator: Adobe Illustrator 16.0.0, SVG Export Plug-In . SVG Version: 6.00 Build 0)  -->
<!DOCTYPE svg PUBLIC "-//W3C//DTD SVG 1.1//EN" "http://www.w3.org/Graphics/SVG/1.1/DTD/svg11.dtd">
<svg version="1.1" id="Ñëîé_1" xmlns="http://www.w3.org/2000/svg" xmlns:xlink="http://www.w3.org/1999/xlink" x="0px" y="0px"
	 width="1456px" height="430px" viewBox="0 0 1456 430" enable-background="new 0 0 1456 430" xml:space="preserve">
<g>
	<g>
		<path fill="#414042" d="M116.563,428.683c-6.052,0-11.715-2.384-15.946-6.712c-4.232-4.326-6.484-10.044-6.346-16.097l0.732-31.97
			h-8.237c-22.873,0-41.479-18.607-41.479-41.479V151.351c0-22.872,18.606-41.479,41.479-41.479h14.318l0.53-23.224
			c-8.499,1.35-17.594,2.034-27.062,2.034c-32.63,0-67.75-8.546-67.75-27.308c0-32.021,30.391-58.071,67.75-58.071
			c37.359,0,67.75,26.05,67.75,58.071c0,4.159-1.877,10.2-10.691,15.633l0.751,32.865h111.103c6.354,0,11.523,5.169,11.523,11.521
			v184.306c0,5.233-4.259,9.492-9.492,9.492c-2.979,0-6.217,7.127-6.217,16.663c0,9.537,3.238,16.664,6.136,16.664
			c5.314,0,9.573,4.257,9.573,9.49v4.375c0,6.353-5.169,11.521-11.523,11.521H138.439l0.732,31.97
			c0.14,6.049-2.112,11.766-6.343,16.094c-4.229,4.33-9.892,6.715-15.947,6.715H116.563z"/>
		<path fill="#A0AFBA" d="M102.896,331.206l-1.713,74.826c-0.198,8.632,6.746,15.737,15.381,15.737h0.318
			c8.635,0,15.579-7.105,15.381-15.737l-1.714-74.826l-5.489-0.317c-5.553-0.319-11.121-0.319-16.674,0L102.896,331.206z"/>
		<path fill="#FFFFFF" d="M232.521,336.628c-0.15-1.459-1.406-2.561-2.872-2.565c-17.258-0.062-30.558-0.439-30.558-0.898
			c0-0.457,13.236-0.835,30.433-0.897c1.524-0.005,2.796-1.186,2.893-2.706c0.055-0.866,0.125-1.847,0.21-2.793
			c0.149-1.672-1.173-3.116-2.852-3.142c-11.214-0.172-18.859-0.512-18.859-0.903c0-0.409,8.338-0.762,20.366-0.925
			c1.231-0.017,2.336-0.814,2.716-1.985c0.872-2.688,2.021-4.787,3.354-5.98c-0.006-0.014-0.005-0.012-0.011-0.024H89.465
			c-9.867,0-17.866,7.998-17.866,17.865v0.36c0,9.867,7.999,17.866,17.866,17.866h3.59c2.706,0,4.968-2.059,5.222-4.753l0.869-9.222
			c0.282-2.987-2.012-5.602-5.01-5.731c-8.043-0.349-13.19-0.881-13.19-1.479c0-1.05,15.863-1.901,35.431-1.901
			c19.567,0,35.43,0.852,35.43,1.901c0,0.599-5.147,1.131-13.19,1.479c-2.998,0.13-5.292,2.744-5.01,5.731l0.869,9.222
			c0.254,2.694,2.516,4.753,5.222,4.753h97.68C234.988,347.782,233.156,342.809,232.521,336.628z"/>
		<path fill="#A0AFBA" d="M135.388,61.373c0-11.263-27.237-20.394-60.836-20.394S13.715,50.11,13.715,61.373
			s27.237,20.394,60.836,20.394c12.668,0,24.429-1.299,34.169-3.52l-0.756,33.006l17.489-1.145l-0.851-37.147
			C131.397,69.67,135.388,65.679,135.388,61.373z"/>
		<path fill="#F1F2F2" d="M66.912,36.478c36.612,0,66.509,9.637,68.351,21.757c-1.93-26.791-28.367-48.019-60.711-48.019
			c-26.131,0-48.376,13.869-56.991,33.318C30.015,39.187,47.514,36.478,66.912,36.478z"/>
		<path fill="#C96118" d="M241.799,353.918h-0.139h-98.563c-4.063,0-7.245,3.496-6.864,7.541l0.013,0.14
			c0.334,3.541,3.307,6.247,6.864,6.247h98.688c3.808,0,6.895-3.087,6.895-6.895v-0.139
			C248.693,357.005,245.606,353.918,241.799,353.918z"/>
		<path fill="#C96118" d="M241.799,116.204h-79.755h-56.226H91.815h-3.748c-19.644,0-35.567,15.924-35.567,35.567v180.507
			c0,19.644,15.924,35.567,35.567,35.567h2.266c3.557,0,6.53-2.706,6.864-6.247l0.013-0.14c0.381-4.045-2.801-7.541-6.864-7.541
			h-2.018c-12.096,0-21.901-9.806-21.901-21.901v-0.442c0-12.096,9.805-21.901,21.901-21.901h3.486h14.003h56.226h79.616h0.139
			c3.808,0,6.895-3.086,6.895-6.894V123.098C248.693,119.291,245.606,116.204,241.799,116.204z"/>
		<path fill="#E78036" d="M241.799,116.204h-79.755h-43.67c-14.668,0-26.559,11.891-26.559,26.559v140.353
			c0,14.668,11.891,26.558,26.559,26.558h43.67h79.616h0.139c3.808,0,6.895-3.086,6.895-6.894V123.098
			C248.693,119.291,245.606,116.204,241.799,116.204z"/>
		<path fill="#FFFFFF" d="M227.352,211.313c0-12.565-10.186-22.751-22.751-22.751c-1.172,0-2.856,0.092-3.98,0.263
			c-2.613-15.466-15.476-27.176-31.686-27.176c-16.209,0-28.929,11.624-31.542,27.09c-1.124-0.171-2.952-0.177-4.124-0.177
			c-12.565,0-22.751,10.186-22.751,22.751c0,11.564,9.195,21.605,20.365,23.053l-0.535,29.861c0.03-0.011,0.069-0.021,0.1-0.032
			l5.232-30.739c-10.427-1.352-18.969-10.647-18.969-21.443c0-11.729,7.202-20.758,18.931-20.758c1.094,0,4.91,0.162,5.959,0.322
			c2.439-14.437,12.204-23.146,27.334-23.146c15.132,0,24.896,8.709,27.335,23.146c1.05-0.16,4.865-0.322,5.959-0.322
			c11.729,0,19.002,9.562,19.002,21.291c0,9.183-6.384,16.866-14.55,19.805c-1.827,0.658-3.816,0.773-5.744,0.54
			c-19.676-2.389-36.049-0.626-46.957,2.124c23.274-2.195,39.014,0.484,48.211,2.323v21.096
			c-25.917-5.489-44.804-0.805-58.213,2.576c7.152-1.09,15.696-1.744,24.958-1.744c16.378,0,30.676,1.992,38.588,4.961
			l-0.378-29.602C218.314,233.179,227.352,222.878,227.352,211.313z"/>
	</g>
</g>
<g>
	<path fill="#FFFFFF" d="M742.101-396.85v26.62h-8.03v-26.62l-30.8-50.38h8.689l26.4,43.23l26.399-43.23h8.141L742.101-396.85z"/>
	<path fill="#FFFFFF" d="M807.88-373.475c-4.474-2.53-7.993-6.031-10.56-10.505c-2.568-4.472-3.851-9.532-3.851-15.18
		c0-5.646,1.282-10.706,3.851-15.18c2.566-4.472,6.086-7.956,10.56-10.45c4.473-2.492,9.496-3.74,15.07-3.74
		c5.572,0,10.596,1.248,15.07,3.74c4.472,2.494,7.975,5.978,10.505,10.45c2.529,4.474,3.795,9.534,3.795,15.18
		c0,5.648-1.266,10.708-3.795,15.18c-2.53,4.474-6.033,7.975-10.505,10.505c-4.475,2.53-9.498,3.795-15.07,3.795
		C817.376-369.68,812.353-370.945,807.88-373.475z M834.005-379.415c3.263-1.87,5.812-4.527,7.646-7.975
		c1.832-3.446,2.75-7.37,2.75-11.77c0-4.4-0.918-8.322-2.75-11.77c-1.834-3.446-4.383-6.105-7.646-7.975
		c-3.264-1.87-6.948-2.805-11.055-2.805c-4.107,0-7.793,0.935-11.055,2.805c-3.265,1.87-5.83,4.529-7.7,7.975
		c-1.87,3.448-2.805,7.37-2.805,11.77c0,4.4,0.935,8.324,2.805,11.77c1.87,3.448,4.436,6.105,7.7,7.975
		c3.262,1.87,6.947,2.805,11.055,2.805C827.057-376.61,830.741-377.545,834.005-379.415z"/>
	<path fill="#FFFFFF" d="M942.41-428.09v57.86h-7.48v-10.56c-2.055,3.52-4.879,6.253-8.471,8.195
		c-3.594,1.944-7.699,2.915-12.32,2.915c-7.553,0-13.512-2.107-17.875-6.325c-4.363-4.216-6.544-10.395-6.544-18.535v-33.55h7.81
		v32.78c0,6.088,1.502,10.708,4.51,13.86c3.006,3.154,7.297,4.73,12.871,4.73c6.086,0,10.889-1.851,14.41-5.555
		c3.52-3.702,5.279-8.855,5.279-15.455v-30.36H942.41z"/>
	<path fill="#FFFFFF" d="M1001.973-425.56c3.631-1.98,8.121-2.97,13.475-2.97v7.59l-1.869-0.11c-6.088,0-10.854,1.87-14.301,5.61
		c-3.447,3.74-5.17,8.984-5.17,15.73v29.48h-7.811v-57.86h7.48v11.33C995.609-420.646,998.342-423.58,1001.973-425.56z"/>
</g>
<g>
	<g>
		<path fill="#E78036" d="M1027.664,372.846v-255c0-2.496,0.498-4.248,1.5-5.25c0.996-0.996,4.436-1.623,10.313-1.875
			c5.871-0.246,15.938-0.375,30.188-0.375v255c0,2.502-0.504,4.254-1.5,5.25c-1.002,1.002-4.441,1.629-10.313,1.875
			C1051.975,372.723,1041.914,372.846,1027.664,372.846z M1047.539,252.846v-39.375h76.875l0.375,39.375H1047.539z
			 M1105.664,372.846v-255c0-2.496,0.563-4.248,1.688-5.25c1.125-0.996,4.559-1.623,10.313-1.875c5.748-0.246,15.75-0.375,30-0.375
			v255c0,2.502-0.504,4.254-1.5,5.25c-1.002,1.002-4.441,1.629-10.313,1.875C1129.975,372.723,1119.914,372.846,1105.664,372.846z"
			/>
		<path fill="#E78036" d="M1241.41,376.596c-14.754,0-26.566-2.004-35.438-6c-8.877-3.996-15.627-9.434-20.25-16.313
			c-4.629-6.873-7.688-14.871-9.188-24c-1.5-9.123-2.25-18.938-2.25-29.438V118.221c0-2.748,0.621-4.623,1.875-5.625
			c1.248-0.996,4.875-1.623,10.875-1.875c6-0.246,16.248-0.375,30.75-0.375v192c0,6,0.311,11.25,0.938,15.75
			c0.621,4.5,1.811,8.25,3.563,11.25c1.746,3,4.184,5.191,7.313,6.563c3.123,1.377,7.061,2.063,11.813,2.063
			c4.248,0,8.309-0.434,12.188-1.313c3.873-0.873,7.061-1.934,9.563-3.188v-215.25c0-2.748,0.621-4.623,1.875-5.625
			c1.248-0.996,4.811-1.623,10.688-1.875c5.871-0.246,15.938-0.375,30.188-0.375v252c-4.5,3-12.375,6.129-23.625,9.375
			S1257.406,376.596,1241.41,376.596z"/>
		<path fill="#E78036" d="M1332.158,372.846v-255c0-2.496,0.75-4.371,2.25-5.625c1.5-1.248,4.248-1.875,8.25-1.875h36.75
			c7.998,0,15.75,0.814,23.25,2.438c7.5,1.629,14.25,4.564,20.25,8.813c6,4.254,10.811,10.189,14.438,17.813
			c3.621,7.629,5.438,17.566,5.438,29.813c0,12.75-1.752,23.438-5.25,32.063c-3.504,8.625-7.875,15.252-13.125,19.875
			c-5.25,4.629-10.629,7.313-16.125,8.063c4.5,0.504,9.246,1.564,14.25,3.188c4.998,1.629,9.686,4.377,14.063,8.25
			c4.371,3.879,7.934,9.252,10.688,16.125c2.748,6.879,4.125,15.814,4.125,26.812c0,10.002-0.814,19.441-2.438,28.313
			c-1.629,8.877-4.189,17.004-7.688,24.375c-3.504,7.377-8.004,13.816-13.5,19.313c-5.502,5.502-12.064,9.75-19.688,12.75
			c-7.629,3-16.564,4.5-26.813,4.5H1332.158z M1374.908,213.846h7.125c3,0,5.561-1.5,7.688-4.5c2.121-3,3.75-7.184,4.875-12.563
			c1.125-5.373,1.688-11.561,1.688-18.563c0-8.748-0.563-15.375-1.688-19.875s-2.689-7.5-4.688-9c-2.004-1.5-4.125-2.25-6.375-2.25
			h-8.625V213.846z M1374.908,336.471h7.5c3,0,5.625-1.125,7.875-3.375s4.184-5.496,5.813-9.75c1.623-4.248,2.871-9.375,3.75-15.375
			c0.873-6,1.313-12.873,1.313-20.625c0-8.496-0.375-15.246-1.125-20.25c-0.75-4.998-1.875-8.813-3.375-11.438
			s-3.375-4.371-5.625-5.25c-2.25-0.873-4.875-1.313-7.875-1.313h-8.25V336.471z"/>
	</g>
</g>
<g>
	<path fill="#25B35F" d="M295.745,372.847v-255c1.248-4.998,3.75-7.5,7.5-7.5h27c3.75,0,6.246,2.502,7.5,7.5v247.5
		c0,2.502-0.627,4.254-1.875,5.25c-1.254,1.002-4.816,1.629-10.688,1.875C319.305,372.724,309.491,372.847,295.745,372.847z
		 M308.12,271.597c-4.254,0-6.75-0.75-7.5-2.25s-1.125-4.248-1.125-8.25v-143.25c0.498-4.998,2.748-7.5,6.75-7.5h32.25
		c15.75,0,29.063,2.191,39.938,6.563c10.875,4.377,19.125,12.129,24.75,23.25c5.625,11.127,8.438,26.941,8.438,47.438
		c0,17.004-2.063,30.938-6.188,41.813s-9.627,19.377-16.5,25.5c-6.879,6.129-14.502,10.441-22.875,12.938
		c-8.379,2.502-16.939,3.75-25.688,3.75H308.12z M337.745,232.972h7.5c3.996,0,7.371-1.248,10.125-3.75
		c2.748-2.496,4.934-7.184,6.563-14.063c1.623-6.873,2.438-16.811,2.438-29.813c0-9-0.563-16.371-1.688-22.125
		c-1.125-5.748-2.877-9.938-5.25-12.563c-2.379-2.625-5.566-3.938-9.563-3.938h-10.125V232.972z M395.87,373.972
		c-3.252,0-7.002-0.129-11.25-0.375c-4.254-0.252-8.754-0.504-13.5-0.75c-0.504-21.996-2.379-40.184-5.625-54.563
		c-3.252-14.373-6.938-25.623-11.063-33.75c-4.125-8.121-9.316-15.563-15.563-22.313c-1.5-3.498-0.627-6.123,2.625-7.875
		l23.625-13.5c3.996,0,6.621,1.377,7.875,4.125c8.496,8.25,15.563,17.063,21.188,26.438s10.746,21.691,15.375,36.938
		c4.623,15.252,7.313,34.002,8.063,56.25c0,3.504-1.066,5.941-3.188,7.313C412.305,373.28,406.118,373.972,395.87,373.972z"/>
	<path fill="#25B35F" d="M436.366,372.847v-255c1.5-4.998,3.996-7.5,7.5-7.5h90c0,11.25-0.129,19.5-0.375,24.75
		c-0.252,5.25-0.879,8.689-1.875,10.313c-1.002,1.629-2.754,2.438-5.25,2.438h-48v187.5h52.875c0,11.754-0.129,20.25-0.375,25.5
		c-0.252,5.25-0.879,8.566-1.875,9.938c-1.002,1.377-2.754,2.063-5.25,2.063H436.366z M439.366,249.847v-38.25h84.375
		c0,15.75-0.316,26.063-0.938,30.938c-0.627,4.875-2.689,7.313-6.188,7.313H439.366z"/>
	<path fill="#25B35F" d="M607.738,376.597c-8.502,0-16.125-1.066-22.875-3.188s-12.627-5.813-17.625-11.063
		c-5.004-5.25-9.129-12.621-12.375-22.125c-3.252-9.498-5.689-21.621-7.313-36.375c-1.629-14.748-2.438-32.625-2.438-53.625
		c0-24.498,1.5-45.246,4.5-62.25c3-16.998,7.061-30.809,12.188-41.438c5.121-10.623,10.934-18.873,17.438-24.75
		c6.498-5.871,13.248-9.873,20.25-12c6.996-2.121,13.875-3.188,20.625-3.188c10.746,0,18.621,1.066,23.625,3.188
		c4.998,2.127,8.25,4.875,9.75,8.25s2.25,6.938,2.25,10.688c0,5.004-0.627,9.691-1.875,14.063
		c-1.254,4.377-2.625,8.191-4.125,11.438c-1.5-1.248-3.252-2.309-5.25-3.188c-2.004-0.873-4.189-1.623-6.563-2.25
		c-2.379-0.621-4.939-0.938-7.688-0.938c-4.254,0-8.379,0.814-12.375,2.438c-4.002,1.629-7.752,4.564-11.25,8.813
		c-3.504,4.254-6.504,10.125-9,17.625c-2.502,7.5-4.5,17.004-6,28.5c-1.5,11.502-2.25,25.377-2.25,41.625
		c0,16.254,0.563,29.754,1.688,40.5c1.125,10.752,2.813,19.189,5.063,25.313c2.25,6.129,5.25,10.5,9,13.125s8.25,3.938,13.5,3.938
		c5.748,0,11.186-0.498,16.313-1.5c5.121-0.996,9.434-2.373,12.938-4.125c1.5,3.252,2.813,7.066,3.938,11.438
		c1.125,4.377,1.688,8.813,1.688,13.313c0,5.754-1.816,10.752-5.438,15c-3.627,4.254-8.877,7.441-15.75,9.563
		C625.422,375.53,617.236,376.597,607.738,376.597z"/>
	<path fill="#25B35F" d="M674.486,372.847V128.722c0-6.246,0.621-10.623,1.875-13.125c1.248-2.496,4.875-3.996,10.875-4.5
		c6-0.498,15.996-0.75,30-0.75v255c0,2.502-0.627,4.254-1.875,5.25c-1.254,1.002-4.816,1.629-10.688,1.875
		C698.797,372.724,688.736,372.847,674.486,372.847z"/>
	<path fill="#25B35F" d="M743.484,372.847v-255c0-2.748,0.434-4.688,1.313-5.813c0.873-1.125,2.936-1.688,6.188-1.688h27
		c3.75,0,6.246,2.502,7.5,7.5v247.5c0,2.502-0.627,4.254-1.875,5.25c-1.254,1.002-4.752,1.629-10.5,1.875
		C767.355,372.724,757.482,372.847,743.484,372.847z M755.859,271.597c-4.254,0-6.75-0.75-7.5-2.25s-1.125-4.248-1.125-8.25v-143.25
		c0.498-4.998,2.748-7.5,6.75-7.5h32.25c15.75,0,29.063,2.191,39.938,6.563c10.875,4.377,19.125,12.129,24.75,23.25
		c5.625,11.127,8.438,26.941,8.438,47.438c0,17.004-2.063,30.938-6.188,41.813s-9.627,19.377-16.5,25.5
		c-6.879,6.129-14.502,10.441-22.875,12.938c-8.379,2.502-16.939,3.75-25.688,3.75H755.859z M785.484,232.972h7.5
		c3.996,0,7.371-1.313,10.125-3.938c2.748-2.625,4.934-7.559,6.563-14.813c1.623-7.248,2.438-17.871,2.438-31.875
		c0-7.998-0.563-14.625-1.688-19.875s-2.877-9.188-5.25-11.813c-2.379-2.625-5.566-3.938-9.563-3.938h-10.125V232.972z"/>
	<path fill="#25B35F" d="M878.109,372.847v-255c1.5-4.998,3.996-7.5,7.5-7.5h90c0,11.25-0.129,19.5-0.375,24.75
		c-0.252,5.25-0.879,8.689-1.875,10.313c-1.002,1.629-2.754,2.438-5.25,2.438h-48v187.5h52.875c0,11.754-0.129,20.25-0.375,25.5
		c-0.252,5.25-0.879,8.566-1.875,9.938c-1.002,1.377-2.754,2.063-5.25,2.063H878.109z M881.109,249.847v-38.25h84.375
		c0,15.75-0.316,26.063-0.938,30.938c-0.627,4.875-2.689,7.313-6.188,7.313H881.109z"/>
</g>
<g>
	<g>
		<path fill="#414042" d="M46.838-168.377c-6.052,0-11.715-2.384-15.946-6.712c-4.232-4.326-6.484-10.044-6.346-16.097l0.732-31.97
			h-8.237c-22.873,0-41.479-18.607-41.479-41.479v-181.074c0-22.872,18.606-41.479,41.479-41.479h14.318l0.53-23.224
			c-8.499,1.35-17.594,2.034-27.062,2.034c-32.63,0-67.75-8.546-67.75-27.308c0-32.021,30.391-58.071,67.75-58.071
			c37.359,0,67.75,26.05,67.75,58.071c0,4.159-1.877,10.2-10.691,15.633l0.751,32.865h111.103c6.354,0,11.523,5.169,11.523,11.521
			v184.306c0,5.233-4.259,9.492-9.492,9.492c-2.979,0-6.217,7.127-6.217,16.663c0,9.537,3.238,16.664,6.136,16.664
			c5.314,0,9.573,4.257,9.573,9.49v4.375c0,6.353-5.169,11.521-11.523,11.521H68.715l0.732,31.97
			c0.14,6.049-2.112,11.766-6.343,16.094c-4.229,4.33-9.892,6.715-15.947,6.715H46.838z"/>
		<path fill="#A0AFBA" d="M33.171-265.854l-1.713,74.826c-0.198,8.632,6.746,15.737,15.381,15.737h0.318
			c8.635,0,15.579-7.105,15.381-15.737l-1.714-74.826l-5.489-0.317c-5.553-0.319-11.121-0.319-16.674,0L33.171-265.854z"/>
		<path fill="#FFFFFF" d="M162.796-260.432c-0.15-1.459-1.406-2.561-2.872-2.565c-17.258-0.062-30.558-0.439-30.558-0.898
			c0-0.457,13.236-0.835,30.433-0.897c1.524-0.005,2.796-1.186,2.893-2.706c0.055-0.866,0.125-1.847,0.21-2.793
			c0.149-1.672-1.173-3.116-2.852-3.142c-11.214-0.172-18.859-0.512-18.859-0.903c0-0.409,8.338-0.762,20.366-0.925
			c1.231-0.017,2.336-0.814,2.716-1.985c0.872-2.688,2.021-4.787,3.354-5.98c-0.006-0.014-0.005-0.012-0.011-0.024H19.741
			c-9.867,0-17.866,7.998-17.866,17.865v0.36c0,9.867,7.999,17.866,17.866,17.866h3.59c2.706,0,4.968-2.059,5.222-4.753l0.869-9.222
			c0.282-2.987-2.012-5.602-5.01-5.731c-8.043-0.349-13.19-0.881-13.19-1.479c0-1.05,15.863-1.901,35.431-1.901
			c19.567,0,35.43,0.852,35.43,1.901c0,0.599-5.147,1.131-13.19,1.479c-2.998,0.13-5.292,2.744-5.01,5.731l0.869,9.222
			c0.254,2.694,2.516,4.753,5.222,4.753h97.68C165.264-249.278,163.432-254.251,162.796-260.432z"/>
		<path fill="#A0AFBA" d="M65.663-535.687c0-11.263-27.237-20.394-60.836-20.394s-60.836,9.131-60.836,20.394
			s27.237,20.394,60.836,20.394c12.668,0,24.429-1.299,34.169-3.52l-0.756,33.006l17.489-1.145l-0.851-37.147
			C61.673-527.39,65.663-531.381,65.663-535.687z"/>
		<path fill="#F1F2F2" d="M-2.813-560.583c36.612,0,66.509,9.637,68.351,21.757c-1.93-26.791-28.367-48.019-60.711-48.019
			c-26.131,0-48.376,13.869-56.991,33.318C-39.71-557.873-22.211-560.583-2.813-560.583z"/>
		<path fill="#C96118" d="M172.074-243.142h-0.139H73.373c-4.063,0-7.245,3.496-6.864,7.541l0.013,0.14
			c0.334,3.541,3.307,6.247,6.864,6.247h98.688c3.808,0,6.895-3.087,6.895-6.895v-0.139
			C178.969-240.055,175.882-243.142,172.074-243.142z"/>
		<path fill="#C96118" d="M172.074-480.856H92.319H36.094H22.091h-3.748c-19.644,0-35.567,15.924-35.567,35.567v180.507
			c0,19.644,15.924,35.567,35.567,35.567h2.266c3.557,0,6.53-2.706,6.864-6.247l0.013-0.14c0.381-4.045-2.801-7.541-6.864-7.541
			h-2.018c-12.096,0-21.901-9.806-21.901-21.901v-0.442c0-12.096,9.805-21.901,21.901-21.901h3.486h14.003h56.226h79.616h0.139
			c3.808,0,6.895-3.086,6.895-6.894v-179.681C178.969-477.77,175.882-480.856,172.074-480.856z"/>
		<path fill="#E78036" d="M172.074-480.856H92.319h-43.67c-14.668,0-26.559,11.891-26.559,26.559v140.353
			c0,14.668,11.891,26.558,26.559,26.558h43.67h79.616h0.139c3.808,0,6.895-3.086,6.895-6.894v-179.681
			C178.969-477.77,175.882-480.856,172.074-480.856z"/>
		<path fill="#FFFFFF" d="M157.627-385.747c0-12.565-10.186-22.751-22.751-22.751c-1.172,0-2.856,0.092-3.98,0.263
			c-2.613-15.466-15.476-27.176-31.686-27.176c-16.209,0-28.929,11.624-31.542,27.09c-1.124-0.171-2.952-0.177-4.124-0.177
			c-12.565,0-22.751,10.186-22.751,22.751c0,11.564,9.195,21.605,20.365,23.053l-0.535,29.861c0.03-0.011,0.069-0.021,0.1-0.032
			l5.232-30.739c-10.427-1.352-18.969-10.647-18.969-21.443c0-11.729,7.202-20.758,18.931-20.758c1.094,0,4.91,0.162,5.959,0.322
			c2.439-14.437,12.204-23.146,27.334-23.146c15.132,0,24.896,8.709,27.335,23.146c1.05-0.16,4.865-0.322,5.959-0.322
			c11.729,0,19.002,9.562,19.002,21.291c0,9.183-6.384,16.866-14.55,19.805c-1.827,0.658-3.816,0.773-5.744,0.54
			c-19.676-2.389-36.049-0.626-46.957,2.124c23.274-2.195,39.014,0.484,48.211,2.323v21.096
			c-25.917-5.489-44.804-0.805-58.213,2.576c7.152-1.09,15.696-1.744,24.958-1.744c16.378,0,30.676,1.992,38.588,4.961
			l-0.378-29.602C148.59-363.881,157.627-374.182,157.627-385.747z"/>
	</g>
</g>
<text transform="matrix(1 0 0 1 221.2686 -507.9434)" font-family="'Montserrat-SemiBold'" font-size="100" letter-spacing="20">Your</text>
<g>
	<path fill="#FFFFFF" d="M333.661,61.947v27.17h-14.3v-26.95l-30.25-50.05h15.29l22.55,37.51l22.771-37.51h14.08L333.661,61.947z"/>
	<path fill="#FFFFFF" d="M397.571,86.037c-4.769-2.566-8.489-6.141-11.165-10.725c-2.678-4.582-4.016-9.771-4.016-15.565
		c0-5.792,1.338-10.962,4.016-15.51c2.676-4.546,6.396-8.103,11.165-10.67c4.766-2.566,10.12-3.85,16.06-3.85
		c6.013,0,11.402,1.284,16.17,3.85c4.767,2.567,8.487,6.124,11.165,10.67c2.676,4.548,4.015,9.718,4.015,15.51
		c0,5.794-1.339,10.983-4.015,15.565c-2.678,4.584-6.398,8.159-11.165,10.725c-4.768,2.568-10.157,3.85-16.17,3.85
		C407.691,89.887,402.337,88.605,397.571,86.037z M426.171,73.057c3.3-3.372,4.95-7.81,4.95-13.31s-1.65-9.936-4.95-13.31
		c-3.3-3.372-7.479-5.06-12.54-5.06c-5.06,0-9.223,1.688-12.485,5.06c-3.264,3.374-4.895,7.81-4.895,13.31s1.631,9.938,4.895,13.31
		c3.263,3.374,7.426,5.06,12.485,5.06C418.691,78.117,422.871,76.431,426.171,73.057z"/>
	<path fill="#FFFFFF" d="M537.05,30.377v58.74h-13.09v-7.48c-2.2,2.64-4.95,4.675-8.25,6.105s-6.857,2.145-10.67,2.145
		c-7.848,0-14.024-2.181-18.535-6.545c-4.51-4.362-6.765-10.835-6.765-19.415v-33.55h13.75v31.68c0,5.28,1.191,9.223,3.575,11.825
		c2.382,2.604,5.774,3.905,10.175,3.905c4.912,0,8.817-1.521,11.715-4.565c2.896-3.042,4.345-7.425,4.345-13.145v-29.7H537.05z"/>
	<path fill="#FFFFFF" d="M611.08,29.717v13.09c-1.174-0.22-2.237-0.33-3.189-0.33c-5.354,0-9.534,1.559-12.54,4.675
		c-3.008,3.118-4.511,7.609-4.511,13.475v28.49h-13.75v-58.74h13.091v8.58C594.141,32.797,601.106,29.717,611.08,29.717z"/>
</g>
<g>
	
		<text transform="matrix(1 0 0 1 215.269 -224.2139)" fill="#E78036" font-family="'YanoneKaffeesatz-Bold'" font-size="180" letter-spacing="1">HUB</text>
</g>
<text transform="matrix(1 0 0 1 216.5371 -361.0605)" fill="#25B35F" font-family="'YanoneKaffeesatz-Bold'" font-size="180" letter-spacing="1">RECIPE</text>
</svg>
